#!OML:ASF I:\Actors\actors\Patient Classification 1\Patient 1\Session 1\Subject1.ASF
:FULLY-SPECIFIED
:DEGREES
1234
root 0.72759 17.5174 8.74689 7.06506 -1.41196 -8.70482
lowerback 3.42422 -0.193211 4.86999
upperback -9.68748 0.699592 4.72788
thorax -12.4353 0.160365 2.33702
lowerneck -12.4885 -1.55905 1.77312
upperneck 35.9069 -2.64946 -0.837796
head 14.3697 -1.03248 -1.07479
rclavicle 3.57812e-015 -2.0276e-014
rhumerus 8.60294 14.0661 -87.322
rradius 54.8129
rwrist -7.60062
rhand 6.99645 -40.8387
rfingers 7.12502
rthumb 32.2723 -67.9896
lclavicle 3.57812e-015 -2.0276e-014
lhumerus 18.5558 -18.0094 74.794
lradius 50.54
lwrist 25.6295
lhand -21.6486 -14.1923
lfingers 7.12502
lthumb 4.74808 15.7345
rfemur -5.44034 17.8731 24.7635
rtibia 7.11441
rfoot -13.1198 -22.4809
rtoes 1.6822
lfemur 2.18218 -35.4778 -9.3635
ltibia -1.5942
lfoot -12.8222 43.6868
ltoes -0.266949
1235
root 0.731475 17.5185 8.76066 7.05792 -1.4442 -8.68194
lowerback 3.50502 -0.216977 5.29542
upperback -9.75812 0.687822 4.41268
thorax -12.5619 0.0913738 1.76079
lowerneck -12.6457 -1.4801 1.87461
upperneck 36.1518 -2.68737 -0.520936
head 14.5261 -0.987514 -0.975246
rclavicle -7.05686e-015 1.19271e-015
rhumerus 8.87676 13.8437 -87.2027
rradius 55.4866
rwrist -6.44572
rhand 7.76707 -40.5324
rfingers 7.12502
rthumb 33.0055 -67.5314
lclavicle -7.05686e-015 1.19271e-015
lhumerus 16.8826 -16.3188 76.5804
lradius 51.1456
lwrist 25.6192
lhand -21.8156 -14.2411
lfingers 7.12502
lthumb 4.58685 15.6892
rfemur -5.37626 17.9542 24.7416
rtibia 7.10993
rfoot -13.1707 -22.5291
rtoes 1.86027
lfemur 2.30213 -35.4753 -9.45951
ltibia -1.66298
lfoot -12.9722 43.7047
ltoes 0.0364333
1236
root 0.736751 17.5187 8.77354 7.03563 -1.51669 -8.59571
lowerback 3.50989 -0.215281 5.6301
upperback -9.76616 0.691939 4.10878
thorax -12.5685 0.0406511 1.24174
lowerneck -12.7948 -1.40623 1.92426
upperneck 36.2889 -2.71894 -0.195505
head 14.6324 -0.946638 -0.859198
rclavicle -7.7526e-015 1.59028e-014
rhumerus 9.85944 14.5224 -86.3236
rradius 55.8864
rwrist -6.55806
rhand 7.9844 -40.3685
rfingers 7.12502
rthumb 33.2122 -67.3237
lclavicle -7.7526e-015 1.59028e-014
lhumerus 15.3274 -14.5995 78.2765
lradius 51.8344
lwrist 25.7543
lhand -21.9177 -14.0648
lfingers 7.12502
lthumb 4.4882 15.8676
rfemur -5.31278 18.0755 24.6564
rtibia 7.15097
rfoot -13.2774 -22.5967
rtoes 1.94116
lfemur 2.42213 -35.3303 -9.64063
ltibia -1.70784
lfoot -12.9444 43.6098
ltoes -0.0183509
1237
root 0.742487 17.5175 8.78599 7.03931 -1.60739 -8.5104
lowerback 3.49509 -0.212042 5.92361
upperback -9.78026 0.697354 3.85024
thorax -12.5718 -0.00248967 0.795657
lowerneck -12.8918 -1.34163 1.96449
upperneck 36.3301 -2.72034 0.0277609
head 14.6797 -0.90997 -0.776336
rclavicle 1.24737e-014 -5.00937e-014
rhumerus 11.6853 16.7017 -84.2806
rradius 55.6228
rwrist -8.61483
rhand 6.78285 -40.6842
rfingers 7.12502
rthumb 32.069 -67.8763
lclavicle 1.24737e-014 -5.00937e-014
lhumerus 13.9068 -12.958 79.8005
lradius 52.3828
lwrist 25.9728
lhand -22.0089 -13.9492
lfingers 7.12502
lthumb 4.4002 15.9851
rfemur -5.28497 18.1491 24.5625
rtibia 7.18504
rfoot -13.3078 -22.6256
rtoes 1.73597
lfemur 2.46551 -35.0268 -9.77175
ltibia -1.71326
lfoot -12.8195 43.3844
ltoes -0.202097
1238
root 0.744437 17.5164 8.7995 7.03953 -1.72849 -8.45295
lowerback 3.4784 -0.198229 6.18324
upperback -9.79013 0.716139 3.61979
thorax -12.5694 -0.0339472 0.397386
lowerneck -12.9695 -1.27381 2.01777
upperneck 36.3327 -2.71804 0.247832
head 14.7043 -0.870954 -0.695586
rclavicle -2.27608e-014 6.99722e-014
rhumerus 12.9248 17.825 -82.9661
rradius 55.7786
rwrist -9.60263
rhand 6.13052 -41.0975
rfingers 7.12502
rthumb 31.4477 -68.4126
lclavicle -2.27608e-014 6.99722e-014
lhumerus 12.5927 -11.5984 81.0388
lradius 52.8651
lwrist 26.1342
lhand -21.9549 -13.7631
lfingers 7.12502
lthumb 4.45229 16.1701
rfemur -5.23485 18.2585 24.5142
rtibia 7.17928
rfoot -13.3012 -22.6479
rtoes 1.49956
lfemur 2.5331 -34.7462 -9.87208
ltibia -1.71147
lfoot -12.6343 43.2292
ltoes -0.477091
1239
root 0.742206 17.516 8.81337 7.03013 -1.88606 -8.46489
lowerback 3.45369 -0.144314 6.44606
upperback -9.78365 0.790136 3.41164
thorax -12.5408 -0.0369491 0.0135198
lowerneck -13.0196 -1.21771 2.07206
upperneck 36.2975 -2.74216 0.498146
head 14.7052 -0.839376 -0.605851
rclavicle 1.31198e-014 -2.3059e-014
rhumerus 13.7755 18.1845 -82.1326
rradius 55.9924
rwrist -9.77911
rhand 5.99604 -41.2498
rfingers 7.12502
rthumb 31.3195 -68.5899
lclavicle 1.31198e-014 -2.3059e-014
lhumerus 11.4421 -10.679 81.9625
lradius 53.2493
lwrist 26.0794
lhand -21.9093 -13.6199
lfingers 7.12502
lthumb 4.49639 16.3124
rfemur -5.16852 18.3884 24.5701
rtibia 7.19366
rfoot -13.331 -22.654
rtoes 1.38793
lfemur 2.64421 -34.638 -9.93304
ltibia -1.65839
lfoot -12.8548 43.23
ltoes -0.163544
1240
root 0.739706 17.5142 8.82575 7.04762 -1.9674 -8.50811
lowerback 3.41793 -0.0860023 6.70935
upperback -9.79287 0.873702 3.23598
thorax -12.5235 -0.033487 -0.335722
lowerneck -13.0495 -1.16999 2.09111
upperneck 36.2259 -2.76273 0.741656
head 14.6846 -0.812453 -0.5116
rclavicle -1.29707e-014 1.76918e-014
rhumerus 14.4138 18.4505 -81.2404
rradius 56.1163
rwrist -9.89614
rhand 6.17155 -41.3267
rfingers 7.12502
rthumb 31.4868 -68.6342
lclavicle -1.29707e-014 1.76918e-014
lhumerus 10.5027 -10.0921 82.7
lradius 53.4306
lwrist 25.9427
lhand -21.9802 -13.7957
lfingers 7.12502
lthumb 4.42788 16.138
rfemur -5.15229 18.4037 24.6472
rtibia 7.22888
rfoot -13.3433 -22.6252
rtoes 1.16723
lfemur 2.64207 -34.5594 -9.89884
ltibia -1.54882
lfoot -13.2259 43.1988
ltoes 0.403742
